<?xml version="1.0" encoding="UTF-8" standalone="no"?>
<!-- Created with Inkscape (http://www.inkscape.org/) -->

<svg
   xmlns:dc="http://purl.org/dc/elements/1.1/"
   xmlns:cc="http://creativecommons.org/ns#"
   xmlns:rdf="http://www.w3.org/1999/02/22-rdf-syntax-ns#"
   xmlns:svg="http://www.w3.org/2000/svg"
   xmlns="http://www.w3.org/2000/svg"
   xmlns:sodipodi="http://sodipodi.sourceforge.net/DTD/sodipodi-0.dtd"
   xmlns:inkscape="http://www.inkscape.org/namespaces/inkscape"
   width="500"
   height="500"
   viewBox="0 0 500.00001 500.00001"
   id="svg4947"
   version="1.1"
   inkscape:version="0.91 r13725"
   sodipodi:docname="sprites.svg">
  <defs
     id="defs4949" />
  <sodipodi:namedview
     id="base"
     pagecolor="#ffffff"
     bordercolor="#666666"
     borderopacity="1.0"
     inkscape:pageopacity="0.0"
     inkscape:pageshadow="2"
     inkscape:zoom="14.875521"
     inkscape:cx="88.173658"
     inkscape:cy="384.4643"
     inkscape:document-units="px"
     inkscape:current-layer="layer1"
     showgrid="true"
     units="px"
     inkscape:showpageshadow="false"
     inkscape:window-width="1676"
     inkscape:window-height="1005"
     inkscape:window-x="4"
     inkscape:window-y="0"
     inkscape:window-maximized="1">
    <inkscape:grid
       type="xygrid"
       id="grid4957" />
  </sodipodi:namedview>
  <metadata
     id="metadata4952">
    <rdf:RDF>
      <cc:Work
         rdf:about="">
        <dc:format>image/svg+xml</dc:format>
        <dc:type
           rdf:resource="http://purl.org/dc/dcmitype/StillImage" />
        <dc:title />
      </cc:Work>
    </rdf:RDF>
  </metadata>
  <g
     inkscape:label="Layer 1"
     inkscape:groupmode="layer"
     id="layer1"
     transform="translate(0,-552.36216)">
    <g
       id="g5109"
       inkscape:export-filename="/Users/df3804/Documents/projects/ld35/assets/sprites/green.png"
       inkscape:export-xdpi="90"
       inkscape:export-ydpi="90">
      <path
         sodipodi:open="true"
         d="m 63,606.36218 a 20,20 0 0 1 -19.982407,19.99999 20,20 0 0 1 -20.017562,-19.9648 20,20 0 0 1 19.94719,-20.03512 20,20 0 0 1 20.052655,19.92956"
         sodipodi:end="6.2796667"
         sodipodi:start="0"
         sodipodi:ry="20"
         sodipodi:rx="20"
         sodipodi:cy="606.36218"
         sodipodi:cx="43"
         sodipodi:type="arc"
         id="path4959"
         style="fill:#008000;fill-opacity:1;stroke:none" />
      <path
         style="fill:#00a400;fill-opacity:1;stroke:none"
         id="path5501"
         sodipodi:type="arc"
         sodipodi:cx="43.699413"
         sodipodi:cy="605.28125"
         sodipodi:rx="16.502924"
         sodipodi:ry="17.393087"
         sodipodi:start="0"
         sodipodi:end="6.2796667"
         d="M 60.202337,605.28125 A 16.502924,17.393087 0 0 1 43.71393,622.67433 16.502924,17.393087 0 0 1 27.196515,605.31185 16.502924,17.393087 0 0 1 43.655863,587.88822 16.502924,17.393087 0 0 1 60.202235,605.22005"
         sodipodi:open="true" />
      <path
         sodipodi:open="true"
         d="m 57.150344,604.77258 a 13.450931,14.46826 0 0 1 -13.439099,14.46826 13.450931,14.46826 0 0 1 -13.462741,-14.4428 13.450931,14.46826 0 0 1 13.415413,-14.49367 13.450931,14.46826 0 0 1 13.486344,14.4173"
         sodipodi:end="6.2796667"
         sodipodi:start="0"
         sodipodi:ry="14.46826"
         sodipodi:rx="13.450931"
         sodipodi:cy="604.77258"
         sodipodi:cx="43.699413"
         sodipodi:type="arc"
         id="path5503"
         style="fill:#00ca00;fill-opacity:1;stroke:none" />
      <path
         style="fill:#9fff9f;fill-opacity:1;stroke:none"
         id="path5505"
         sodipodi:type="arc"
         sodipodi:cx="47.132896"
         sodipodi:cy="600.63965"
         sodipodi:rx="4.6764479"
         sodipodi:ry="4.7400293"
         sodipodi:start="0"
         sodipodi:end="6.2796667"
         d="m 51.809344,600.63965 a 4.6764479,4.7400293 0 0 1 -4.672334,4.74003 4.6764479,4.7400293 0 0 1 -4.680554,-4.73169 4.6764479,4.7400293 0 0 1 4.6641,-4.74835 4.6764479,4.7400293 0 0 1 4.688759,4.72333"
         sodipodi:open="true" />
    </g>
    <rect
       style="fill:#00a4ff;fill-opacity:0.509434"
       id="rect4563"
       width="50"
       height="50"
       x="111.30177"
       y="589.84741"
       inkscape:export-filename="/Users/df3804/Documents/projects/ld35/assets/sprites/water.png"
       inkscape:export-xdpi="90"
       inkscape:export-ydpi="90" />
    <rect
       style="fill:#911919;fill-opacity:1"
       id="rect5105"
       width="40"
       height="40"
       x="19.822483"
       y="652.30304"
       inkscape:export-filename="/Users/df3804/Documents/projects/ld35/assets/sprites/red.png"
       inkscape:export-xdpi="90"
       inkscape:export-ydpi="90" />
    <rect
       y="656.55994"
       x="24.075871"
       height="31.805851"
       width="31.888865"
       id="rect5107"
       style="fill:#bd2020;fill-opacity:1"
       inkscape:export-filename="/Users/df3804/Documents/projects/ld35/assets/sprites/red.png"
       inkscape:export-xdpi="90"
       inkscape:export-ydpi="90" />
    <path
       style="fill:#191e91;fill-opacity:1"
       d="m 89.888962,652.30306 20.225468,40.09507 -39.999997,0 z"
       id="rect5115"
       inkscape:connector-curvature="0"
       sodipodi:nodetypes="cccc" />
    <path
       sodipodi:nodetypes="cccc"
       inkscape:connector-curvature="0"
       id="path5118"
       d="m 89.82686,657.27372 16.65531,33.4438 -32.939286,0 z"
       style="fill:#2d34da;fill-opacity:1" />
  </g>
</svg>
